<svg version="1.1" id="Layer_1" xmlns="http://www.w3.org/2000/svg" xmlns:xlink="http://www.w3.org/1999/xlink" x="0px" y="0px"
	 width="100%" viewBox="0 0 631 379" enable-background="new 0 0 631 379" xml:space="preserve">
<path fill="#010000" opacity="1.000000" stroke="none" 
	d="
M632.000000,377.000000 
	C632.000000,377.998962 632.000000,378.997894 632.000000,379.998413 
	C495.976685,380.000000 359.953339,380.000000 223.190979,379.635132 
	C223.496063,378.871490 224.509537,378.260162 225.588730,378.104614 
	C266.233246,372.246582 301.994873,355.784515 332.354858,328.149445 
	C341.004730,320.275940 348.493866,311.127197 356.781799,302.278656 
	C325.967926,280.970245 296.316589,260.465759 266.669922,239.964462 
	C236.485275,281.968109 177.370560,283.067535 145.075684,256.486420 
	C104.912880,223.429428 104.676689,172.847992 130.786957,139.956497 
	C160.095657,103.035919 220.845108,95.086029 261.569366,136.608261 
	C286.880127,114.518166 312.202362,92.420204 337.519745,70.316681 
	C338.994568,69.029091 340.429962,67.696381 342.116364,66.174721 
	C322.958862,44.987320 300.535431,28.826523 274.278900,17.968861 
	C253.992813,9.580101 232.994568,4.303091 211.065582,2.774963 
	C210.007629,2.701239 209.020248,1.614826 208.000000,1.000000 
	C349.256927,1.000000 490.513824,1.000000 632.000000,1.000000 
	C632.000000,124.689896 632.000000,248.379944 631.697266,372.787354 
	C630.681702,372.597565 629.895020,371.738586 629.266785,370.776184 
	C609.252380,340.114532 589.323730,309.396362 569.157654,278.834869 
	C566.789795,275.246460 566.994080,273.263580 569.782837,270.007538 
	C592.591370,243.377380 603.412842,212.772141 598.002808,177.660339 
	C589.494141,122.438515 538.069885,82.133163 488.412598,82.950706 
	C451.936798,83.551224 415.443176,83.068466 378.957489,83.068474 
	C377.170959,83.068474 375.384430,83.068474 373.373230,83.068474 
	C373.373230,181.261002 373.373230,278.940155 373.373230,376.700623 
	C405.412048,376.700623 437.145203,376.700623 469.266357,376.700623 
	C469.266357,364.440094 469.062469,352.470428 469.323669,340.510925 
	C469.585266,328.533020 468.144531,316.450104 471.112152,304.198822 
	C474.585663,306.369202 477.750092,308.535339 479.980774,311.422852 
	C495.847412,331.961456 511.593689,352.594574 527.174438,373.350647 
	C529.223145,376.079895 531.212158,377.080261 534.538513,377.068604 
	C567.025330,376.954651 599.512756,377.000000 632.000000,377.000000 
z"/>
<path fill="#FEFEFE" opacity="1.000000" stroke="none" 
	d="
M207.531372,1.000000 
	C209.020248,1.614826 210.007629,2.701239 211.065582,2.774963 
	C232.994568,4.303091 253.992813,9.580101 274.278900,17.968861 
	C300.535431,28.826523 322.958862,44.987320 342.116364,66.174721 
	C340.429962,67.696381 338.994568,69.029091 337.519745,70.316681 
	C312.202362,92.420204 286.880127,114.518166 261.569366,136.608261 
	C220.845108,95.086029 160.095657,103.035919 130.786957,139.956497 
	C104.676689,172.847992 104.912880,223.429428 145.075684,256.486420 
	C177.370560,283.067535 236.485275,281.968109 266.669922,239.964462 
	C296.316589,260.465759 325.967926,280.970245 356.781799,302.278656 
	C348.493866,311.127197 341.004730,320.275940 332.354858,328.149445 
	C301.994873,355.784515 266.233246,372.246582 225.588730,378.104614 
	C224.509537,378.260162 223.496063,378.871490 222.725983,379.635132 
	C206.645767,380.000000 190.291550,380.000000 173.788116,379.652191 
	C172.806046,378.899231 172.008820,378.253418 171.135071,378.123901 
	C143.658295,374.051453 117.794365,365.126007 94.450600,350.179901 
	C26.405815,306.613373 -5.266090,243.999725 5.773763,164.029968 
	C15.479565,93.723747 57.095764,45.179089 122.090660,16.989481 
	C140.961426,8.804844 160.878281,4.325419 181.438187,2.823413 
	C182.663315,2.733911 183.814438,1.631221 185.000000,1.000000 
	C192.354248,1.000000 199.708496,1.000000 207.531372,1.000000 
z"/>
<path fill="#FE0000" opacity="1.000000" stroke="none" 
	d="
M632.000000,376.600006 
	C599.512756,377.000000 567.025330,376.954651 534.538513,377.068604 
	C531.212158,377.080261 529.223145,376.079895 527.174438,373.350647 
	C511.593689,352.594574 495.847412,331.961456 479.980774,311.422852 
	C477.750092,308.535339 474.585663,306.369202 471.112152,304.198822 
	C468.144531,316.450104 469.585266,328.533020 469.323669,340.510925 
	C469.062469,352.470428 469.266357,364.440094 469.266357,376.700623 
	C437.145203,376.700623 405.412048,376.700623 373.373230,376.700623 
	C373.373230,278.940155 373.373230,181.261002 373.373230,83.068474 
	C375.384430,83.068474 377.170959,83.068474 378.957489,83.068474 
	C415.443176,83.068466 451.936798,83.551224 488.412598,82.950706 
	C538.069885,82.133163 589.494141,122.438515 598.002808,177.660339 
	C603.412842,212.772141 592.591370,243.377380 569.782837,270.007538 
	C566.994080,273.263580 566.789795,275.246460 569.157654,278.834869 
	C589.323730,309.396362 609.252380,340.114532 629.266785,370.776184 
	C629.895020,371.738586 630.681702,372.597565 631.697266,373.252380 
	C632.000000,374.066681 632.000000,375.133331 632.000000,376.600006 
M468.254608,194.499802 
	C468.254608,201.272247 468.254608,208.044708 468.254608,215.083038 
	C474.239594,215.083038 479.555267,215.245667 484.857544,215.048813 
	C495.529083,214.652618 504.918884,206.114380 506.036255,196.014511 
	C507.354980,184.094620 500.721802,173.432129 489.426453,171.107468 
	C482.734344,169.730164 475.675995,170.132614 468.254822,169.704330 
	C468.254822,178.261810 468.254822,185.880844 468.254608,194.499802 
z"/>
<path fill="#010000" opacity="1.000000" stroke="none" 
	d="
M184.531342,1.000000 
	C183.814438,1.631221 182.663315,2.733911 181.438187,2.823413 
	C160.878281,4.325419 140.961426,8.804844 122.090660,16.989481 
	C57.095764,45.179089 15.479565,93.723747 5.773763,164.029968 
	C-5.266090,243.999725 26.405815,306.613373 94.450600,350.179901 
	C117.794365,365.126007 143.658295,374.051453 171.135071,378.123901 
	C172.008820,378.253418 172.806046,378.899231 173.319458,379.652191 
	C115.700806,380.000000 58.401611,380.000000 1.051209,380.000000 
	C1.051209,253.776047 1.051209,127.552071 1.051209,1.000000 
	C62.020504,1.000000 123.041595,1.000000 184.531342,1.000000 
z"/>
<path fill="#040000" opacity="1.000000" stroke="none" 
	d="
M468.254700,193.999847 
	C468.254822,185.880844 468.254822,178.261810 468.254822,169.704330 
	C475.675995,170.132614 482.734344,169.730164 489.426453,171.107468 
	C500.721802,173.432129 507.354980,184.094620 506.036255,196.014511 
	C504.918884,206.114380 495.529083,214.652618 484.857544,215.048813 
	C479.555267,215.245667 474.239594,215.083038 468.254608,215.083038 
	C468.254608,208.044708 468.254608,201.272247 468.254700,193.999847 
z"/>
</svg>